# xmcd
#
# Track frame offsets:
#	150
#	16689
#	31067
#	52485
#	73967
#	92497
#	117247
#	130923
#	145731
#	161698
#	180064
#	194361
#
# Disc length: 2809 seconds
#
# Revision: 1
# Processed by: cddbd v1.5.2PL0 Copyright (c) Steve Scherf et al.
# Submitted via: audiograbber 1.83.01
#
DISCID=9e0af70c
DTITLE=Denver John - Greatest Hits
DYEAR=2008
DGENRE=Country
TTITLE0=leaving on a jet plane
TTITLE1=take me home country roads
TTITLE2=rocky mountain high
TTITLE3=back home again
TTITLE4=poems, prayers and promises
TTITLE5=sweet surrender
TTITLE6=annie´s song
TTITLE7=rhymes and reasons
TTITLE8=i´m sorry
TTITLE9=farewell andromeda (welcome to my morning)
TTITLE10=how can i leave you again
TTITLE11=goodbye again
EXTD=
EXTT0=
EXTT1=
EXTT2=
EXTT3=
EXTT4=
EXTT5=
EXTT6=
EXTT7=
EXTT8=
EXTT9=
EXTT10=
EXTT11=
PLAYORDER=
